<svg width="100" height="100" viewBox="0 0 100 100" fill="none" xmlns="http://www.w3.org/2000/svg">
<g clip-path="url(#clip0_103_16)">
<path fill-rule="evenodd" clip-rule="evenodd" d="M0 19C0 8.50659 8.50659 0 19 0H81C91.4934 0 100 8.50659 100 19V81C100 91.4934 91.4934 100 81 100H19C8.50659 100 0 91.4934 0 81V19ZM39.2061 43.8633L62.2476 17.6387L72.5941 26.7293C74.5831 28.4769 75.9439 30.3456 76.6764 32.3355C77.4163 34.3168 77.5646 36.3001 77.1212 38.2854C76.6938 40.2696 75.7151 42.1325 74.185 43.874C72.6549 45.6155 70.9292 46.8221 69.0079 47.4937C67.0865 48.1654 65.0868 48.2463 63.0086 47.7364C60.939 47.234 58.8969 46.0978 56.8822 44.3276L52.2212 40.2324L44.7507 48.7349L39.2061 43.8633ZM59.8899 39.0968L56.1252 35.789L63.8095 27.0432L67.5485 30.3284C68.6241 31.2735 69.3507 32.2371 69.7282 33.2192C70.1132 34.1928 70.1876 35.1582 69.9516 36.1156C69.7315 37.0719 69.239 37.9854 68.4739 38.8562C67.7164 39.7184 66.8701 40.3286 65.935 40.687C65.016 41.0443 64.0415 41.1032 63.0115 40.8638C61.9975 40.6233 60.957 40.0343 59.8899 39.0968ZM38.7698 81.8397L61.7217 55.5365L56.1605 50.6839L48.7191 59.2119L44.0441 55.1325C42.0234 53.3693 39.9774 52.24 37.9061 51.7447C35.8262 51.2419 33.8268 51.3296 31.9078 52.0079C29.9888 52.6861 28.2672 53.8986 26.743 55.6453C25.2189 57.392 24.2465 59.2582 23.8259 61.2439C23.3893 63.2307 23.5443 65.2135 24.291 67.1922C25.0303 69.1796 26.3974 71.0436 28.3924 72.7845L38.7698 81.8397ZM44.8303 63.6685L37.1759 72.4405L33.4257 69.1681C32.3468 68.2267 31.617 67.2656 31.2362 66.2848C30.8479 65.3125 30.7701 64.3473 31.0029 63.3892C31.2197 62.4321 31.7091 61.5169 32.4712 60.6436C33.2258 59.7788 34.07 59.1656 35.0038 58.8041C35.9216 58.4436 36.8959 58.3814 37.9267 58.6173C38.9415 58.8543 39.9841 59.4398 41.0544 60.3737L44.8303 63.6685Z" fill="black"/>
</g>
<defs>
<clipPath id="clip0_103_16">
<rect width="100" height="100" fill="white"/>
</clipPath>
</defs>
</svg>
